<mxfile host="app.diagrams.net" modified="2023-08-01T23:56:32.518Z" agent="Mozilla/5.0 (Windows NT 10.0; Win64; x64) AppleWebKit/537.36 (KHTML, like Gecko) Chrome/115.0.0.0 Safari/537.36" version="21.6.6" etag="dzjGcNopvZLe8LQEk-XH" type="github">
  <diagram name="페이지-1" id="gbhqVPH17pG1yw0tLi_V">
    <mxGraphModel>
      <root>
        <mxCell id="0" />
        <mxCell id="1" parent="0" />
      </root>
    </mxGraphModel>
  </diagram>
</mxfile>
